<svg width="1920" height="1005" viewBox="0 0 1920 1005" fill="none" xmlns="http://www.w3.org/2000/svg">
<path d="M306.95 551.53C304.897 549.939 302.845 548.282 300.99 546.625C272.914 521.766 290.594 475.164 328.14 475.164C342.51 475.164 356.019 482.588 362.905 495.183C365.091 499.161 368.004 502.674 371.58 505.723C380.188 512.949 392.174 516.595 407.537 516.595C422.9 516.595 435.879 513.877 444.951 508.242C454.023 502.674 458.526 495.051 458.526 485.24C458.526 478.279 455.877 472.976 450.579 469.33C445.282 465.684 438.528 463.165 430.316 461.773C422.105 460.381 410.583 459.055 395.816 457.597C370.189 455.343 348.999 452.161 332.246 447.918C315.559 443.676 300.99 434.925 288.607 421.535C276.225 408.144 270 388.389 270 362.138C270 343.511 275.364 327.402 286.091 314.078C296.819 300.687 312.446 290.412 332.908 283.319C353.37 276.16 377.672 272.646 405.815 272.646C448.725 272.646 482.298 282.391 506.535 301.947C511.898 306.255 516.666 310.962 520.838 316.066C543.021 343.047 522.427 383.948 487.596 383.948C472.034 383.948 457.135 375.595 450.646 361.475C448.328 356.305 445.149 351.863 441.11 348.018C432.038 339.334 419.721 335.026 404.16 335.026C392.174 335.026 382.44 336.418 374.891 339.268C367.342 342.119 361.912 345.698 358.601 350.14C355.29 354.581 353.568 359.752 353.568 365.652C353.568 373.408 356.813 379.573 363.17 384.014C369.593 388.522 377.672 391.704 387.406 393.693C397.141 395.615 410.517 397.405 427.535 399.128C452.632 401.913 473.028 405.293 488.788 409.205C504.548 413.116 518.057 420.275 529.314 430.749C540.637 441.223 546.266 456.072 546.266 475.296C546.266 507.911 534.016 533.367 509.514 551.663C484.947 569.893 450.977 579.041 407.537 579.041C364.097 579.041 331.12 569.893 307.016 551.663L306.95 551.53Z" fill="#074256"/>
<path d="M1337.92 533.633C1337.92 555.177 1320.63 572.147 1299.44 572.147H1167.33C1134.89 572.147 1108.53 545.83 1108.53 513.281V317.923C1108.53 296.644 1125.75 279.409 1147.01 279.409H1154.55C1175.81 279.409 1193.03 296.644 1193.03 317.923V487.097C1193.03 491.538 1196.6 495.118 1201.04 495.118H1299.44C1320.63 495.118 1337.92 512.42 1337.92 533.633Z" fill="#074256"/>
<path d="M1634.25 339.201C1623.06 317.989 1607.3 301.88 1586.37 290.677C1565.18 279.474 1540.28 273.972 1510.95 273.972C1481.61 273.972 1456.71 279.407 1435.52 290.942C1414.6 302.145 1398.24 318.519 1387.05 339.467C1375.86 360.68 1370.1 386.201 1370.1 415.303V528.461C1370.1 552.723 1389.77 572.146 1414.07 572.146C1438.37 572.146 1457.97 552.723 1457.97 528.461V495.117H1563.39V528.461C1563.39 552.723 1583.06 572.146 1607.36 572.146C1631.66 572.146 1651 552.723 1651 528.461V415.303C1651 385.87 1645.57 360.414 1634.31 339.135L1634.25 339.201ZM1457.91 416.828V415.303C1457.91 396.211 1462.74 381.031 1472.14 370.093C1481.55 358.89 1494.59 353.388 1510.95 353.388C1527.3 353.388 1540.35 358.823 1549.42 370.093C1558.82 381.031 1563.39 396.211 1563.39 415.303V416.828H1457.97H1457.91Z" fill="#074256"/>
<path d="M946.759 578.907C906.366 578.907 868.753 555.109 847.232 514.34L843.524 507.247C840.941 502.408 838.226 498.298 835.578 494.983C829.883 487.824 819.155 487.824 813.46 494.983C810.812 498.298 808.097 502.408 805.514 507.247L801.74 514.34C776.51 562.069 729.23 586.597 681.155 576.786C619.372 564.124 577.389 497.701 585.667 425.511L587.653 407.944C600.301 297.04 692.412 284.644 731.812 279.341C761.214 275.363 792.204 273.109 823.857 272.645C856.768 273.176 887.758 275.429 917.226 279.407C956.56 284.71 1048.74 297.04 1061.32 407.944L1063.31 425.577C1071.52 497.701 1029.53 564.124 967.751 576.786C960.732 578.244 953.712 578.907 946.759 578.907ZM824.453 405.292C858.622 405.292 891.864 429.555 913.385 470.257L917.093 477.284C925.636 493.459 938.946 501.878 951.858 499.16C970.4 495.381 988.411 467.871 984.637 434.46L982.65 416.827C978.147 377.517 962.52 365.386 906.631 357.895C880.275 354.315 852.397 352.326 823.857 351.862C796.508 352.326 768.63 354.315 742.341 357.895C686.386 365.386 670.758 377.517 666.255 416.893L664.269 434.46C660.494 467.871 678.506 495.381 697.047 499.16C709.96 501.811 723.27 493.392 731.812 477.284L735.587 470.191C757.108 429.488 790.35 405.226 824.519 405.226L824.453 405.292Z" fill="#074256"/>
<path d="M520.11 652.292C522.361 652.292 523.553 653.419 523.553 655.74V668.534C523.553 670.721 522.427 671.981 520.11 671.981H491.437C489.251 671.981 487.993 673.108 487.993 675.428V679.074C487.993 681.261 489.251 682.521 491.437 682.521H510.243C512.494 682.521 513.686 683.648 513.686 685.968V698.762C513.686 700.95 512.561 702.209 510.243 702.209H491.437C489.251 702.209 487.993 703.336 487.993 705.656V728.924C487.993 731.112 486.868 732.371 484.55 732.371H471.107C468.922 732.371 467.664 731.112 467.664 728.924V655.938C467.664 653.685 468.922 652.491 471.107 652.491H520.043L520.11 652.292Z" fill="#074256"/>
<path d="M604.075 725.873C605.664 728.856 603.81 732.038 600.3 732.038H587.321C586.195 732.038 585.136 731.441 584.672 730.447L572.819 707.51C572.554 707.179 572.223 706.914 571.892 706.914H567.323C565.27 706.914 563.813 708.372 563.813 710.427V728.458C563.813 730.513 562.357 731.971 560.304 731.971H547.524C545.471 731.971 544.014 730.513 544.014 728.458V655.737C544.014 653.682 545.471 652.224 547.524 652.224H572.488C592.751 652.224 600.962 660.908 600.962 679.602C600.962 690.208 598.314 697.633 592.288 701.942C591.824 702.273 591.692 702.87 591.957 703.4L604.008 725.873H604.075ZM567.389 671.846C565.336 671.846 563.88 673.304 563.88 675.359V683.778C563.88 685.833 565.336 687.292 567.389 687.292H573.217C578.713 687.292 581.428 686.629 581.428 679.536C581.428 672.442 578.713 671.78 573.217 671.78H567.389V671.846Z" fill="#074256"/>
<path d="M641.224 652.292C643.475 652.292 644.667 653.419 644.667 655.74V728.725C644.667 730.913 643.541 732.172 641.224 732.172H628.708C626.523 732.172 625.265 730.913 625.265 728.725V655.74C625.265 653.486 626.523 652.292 628.708 652.292H641.224Z" fill="#074256"/>
<path d="M698.503 652.292C719.892 652.292 726.978 660.977 726.978 679.67V704.662C726.978 723.356 719.892 732.106 698.503 732.106H673.142C670.956 732.106 669.698 730.847 669.698 728.659V655.806C669.698 653.552 670.824 652.359 673.142 652.292H698.503ZM698.835 712.418C704.331 712.418 707.046 711.49 707.046 704.662V679.604C707.046 672.511 704.331 671.848 698.835 671.848H692.676C690.491 671.848 689.233 672.975 689.233 675.295V709.037C689.233 711.225 690.491 712.484 692.676 712.484H698.835V712.418Z" fill="#074256"/>
<path d="M766.38 652.292C768.3 652.292 769.558 653.088 770.221 654.944L778.63 676.157C779.094 677.151 779.756 677.151 780.22 676.157L788.63 654.944C789.292 653.088 790.55 652.292 792.47 652.292H808.76C811.409 652.292 812.535 653.883 811.409 656.27L791.013 701.878C790.749 702.342 790.749 702.806 790.749 703.27V728.659C790.749 730.847 789.623 732.106 787.305 732.106H771.346C769.161 732.106 767.903 730.847 767.903 728.659V703.27C767.903 702.806 767.903 702.342 767.704 701.878L747.243 656.27C746.117 653.883 747.243 652.292 749.891 652.292H766.314H766.38Z" fill="#074256"/>
<path d="M896.963 727.929C898.552 730.183 897.559 732.039 894.778 732.039H877.693C875.839 732.039 874.647 731.376 873.588 729.785L859.483 708.108C859.019 707.445 858.357 707.445 857.894 708.108L853.192 714.472C852.861 714.936 852.729 715.4 852.729 715.93V728.592C852.729 730.779 851.603 732.039 849.285 732.039H836.306C834.121 732.039 832.863 730.779 832.863 728.592V655.606C832.863 653.352 834.121 652.159 836.306 652.159H849.285C851.537 652.159 852.729 653.286 852.729 655.606V678.542C852.729 679.669 853.523 679.934 854.119 679.006L871.998 654.413C873.058 652.954 874.25 652.225 876.104 652.225H892.99C895.837 652.225 896.764 654.015 895.175 656.468L872.197 688.154C871.866 688.751 871.733 689.149 872.197 689.745L897.029 727.929H896.963Z" fill="#074256"/>
<path d="M981.591 727.929C983.18 730.183 982.187 732.039 979.405 732.039H962.321C960.467 732.039 959.275 731.376 958.215 729.785L944.111 708.108C943.647 707.445 942.985 707.445 942.521 708.108L937.82 714.472C937.489 714.936 937.356 715.4 937.356 715.93V728.592C937.356 730.779 936.23 732.039 933.913 732.039H920.934C918.749 732.039 917.49 730.779 917.49 728.592V655.606C917.49 653.352 918.749 652.159 920.934 652.159H933.913C936.164 652.159 937.356 653.286 937.356 655.606V678.542C937.356 679.669 938.151 679.934 938.747 679.006L956.626 654.413C957.685 652.954 958.877 652.225 960.732 652.225H977.617C980.465 652.225 981.392 654.015 979.803 656.468L956.825 688.154C956.494 688.751 956.361 689.149 956.825 689.745L981.657 727.929H981.591Z" fill="#074256"/>
<path d="M1053.51 652.292C1055.76 652.292 1056.95 653.419 1056.95 655.74V668.534C1056.95 670.721 1055.82 671.981 1053.51 671.981H1025.96C1023.77 671.981 1022.51 673.108 1022.51 675.428V679.074C1022.51 681.261 1023.77 682.521 1025.96 682.521H1043.64C1045.89 682.521 1047.08 683.648 1047.08 685.968V698.762C1047.08 700.95 1045.96 702.209 1043.64 702.209H1025.96C1023.77 702.209 1022.51 703.336 1022.51 705.656V709.302C1022.51 711.49 1023.77 712.749 1025.96 712.749H1053.51C1055.76 712.749 1056.95 713.876 1056.95 716.196V728.99C1056.95 731.244 1055.82 732.438 1053.51 732.438H1005.69C1003.51 732.438 1002.25 731.178 1002.25 728.99V656.005C1002.25 653.751 1003.51 652.558 1005.69 652.558H1053.51V652.292Z" fill="#074256"/>
<path d="M1143.36 727.929C1144.95 730.183 1143.96 732.039 1141.18 732.039H1124.09C1122.24 732.039 1121.05 731.376 1119.99 729.785L1105.88 708.108C1105.42 707.445 1104.76 707.445 1104.29 708.108L1099.59 714.472C1099.26 714.936 1099.13 715.4 1099.13 715.93V728.592C1099.13 730.779 1098 732.039 1095.69 732.039H1082.71C1080.52 732.039 1079.26 730.779 1079.26 728.592V655.606C1079.26 653.352 1080.52 652.159 1082.71 652.159H1095.69C1097.94 652.159 1099.13 653.286 1099.13 655.606V678.542C1099.13 679.669 1099.92 679.934 1100.52 679.006L1118.4 654.413C1119.46 652.954 1120.65 652.225 1122.5 652.225H1139.39C1142.24 652.225 1143.17 654.015 1141.58 656.468L1118.6 688.154C1118.27 688.751 1118.13 689.149 1118.6 689.745L1143.43 727.929H1143.36Z" fill="#074256"/>
<path d="M1180.11 652.292C1182.37 652.292 1183.56 653.419 1183.56 655.74V709.103C1183.56 711.291 1184.82 712.55 1187 712.55H1212.36C1214.61 712.55 1215.81 713.677 1215.81 715.998V728.792C1215.81 731.046 1214.68 732.239 1212.36 732.239H1167.4C1165.22 732.239 1163.96 730.979 1163.96 728.792V655.806C1163.96 653.552 1165.22 652.359 1167.4 652.359H1180.18L1180.11 652.292Z" fill="#074256"/>
<path d="M1251.96 652.292C1254.21 652.292 1255.41 653.419 1255.41 655.74V700.419C1255.41 709.17 1256 714.539 1264.41 714.539C1272.82 714.539 1273.42 709.17 1273.42 700.419V655.74C1273.42 653.486 1274.68 652.292 1276.86 652.292H1289.64C1291.89 652.292 1293.09 653.419 1293.09 655.74V706.452C1293.09 713.943 1291.5 734.161 1264.48 734.161C1237.46 734.161 1235.87 714.009 1235.87 706.452V655.74C1235.87 653.486 1237.13 652.292 1239.32 652.292H1252.1H1251.96Z" fill="#074256"/>
<path d="M1344.74 652.29C1366.13 652.29 1374.34 660.974 1374.34 679.668C1374.34 683.513 1373.21 691.07 1368.51 696.174C1373.21 698.362 1376.59 704.063 1376.59 711.09C1376.59 725.21 1370.3 732.038 1348.91 732.038H1320.77C1318.58 732.038 1317.32 730.778 1317.32 728.59V655.737C1317.32 653.483 1318.45 652.29 1320.77 652.224H1344.67L1344.74 652.29ZM1347.45 715.863C1352.95 715.863 1355.66 715.266 1355.66 709.963C1355.66 704.66 1353.15 703.798 1347.72 703.798H1340.3C1338.12 703.798 1336.86 704.925 1336.86 707.245V712.482C1336.86 714.736 1338.12 715.929 1340.3 715.929H1347.45V715.863ZM1346.52 687.358C1352.02 687.358 1354.74 686.695 1354.74 679.602C1354.74 672.509 1352.02 671.846 1346.52 671.846H1340.37C1338.18 671.846 1336.92 672.973 1336.92 675.293V683.977C1336.92 686.231 1338.18 687.424 1340.37 687.424H1346.52V687.358Z" fill="#074256"/>
<path d="M1425.13 652.29C1446.51 652.29 1454.73 660.974 1454.73 679.668C1454.73 683.513 1453.6 691.07 1448.9 696.174C1453.6 698.362 1456.98 704.063 1456.98 711.09C1456.98 725.21 1450.69 732.038 1429.3 732.038H1401.15C1398.97 732.038 1397.71 730.778 1397.71 728.59V655.737C1397.71 653.483 1398.84 652.29 1401.15 652.224H1425.06L1425.13 652.29ZM1427.84 715.863C1433.34 715.863 1436.05 715.266 1436.05 709.963C1436.05 704.66 1433.54 703.798 1428.11 703.798H1420.69C1418.5 703.798 1417.25 704.925 1417.25 707.245V712.482C1417.25 714.736 1418.5 715.929 1420.69 715.929H1427.84V715.863ZM1426.91 687.358C1432.41 687.358 1435.13 686.695 1435.13 679.602C1435.13 672.509 1432.41 671.846 1426.91 671.846H1420.76C1418.57 671.846 1417.31 672.973 1417.31 675.293V683.977C1417.31 686.231 1418.57 687.424 1420.76 687.424H1426.91V687.358Z" fill="#074256"/>
</svg>
